<?xml version="1.0" standalone="no"?>
<!DOCTYPE svg PUBLIC "-//W3C//DTD SVG 20010904//EN"
 "http://www.w3.org/TR/2001/REC-SVG-20010904/DTD/svg10.dtd">
<svg version="1.0" xmlns="http://www.w3.org/2000/svg"
 width="1536.000000pt" height="1024.000000pt" viewBox="0 0 1536.000000 1024.000000"
 preserveAspectRatio="xMidYMid meet">

<g transform="translate(0.000000,1024.000000) scale(0.100000,-0.100000)"
fill="#000000" stroke="none">
<path d="M2545 6549 c-191 -25 -340 -93 -455 -208 -125 -126 -180 -263 -180
-450 0 -226 90 -403 261 -517 99 -65 201 -106 440 -174 274 -78 350 -110 414
-174 55 -56 75 -103 75 -181 0 -76 -20 -125 -70 -176 -61 -61 -137 -90 -253
-97 -149 -8 -269 29 -361 109 -47 41 -101 136 -112 195 l-6 34 -224 0 -224 0
0 -48 c0 -27 9 -84 20 -128 74 -294 313 -497 660 -560 122 -22 341 -20 455 4
379 81 589 324 589 682 0 293 -129 487 -397 598 -40 17 -173 60 -297 95 -283
82 -328 99 -390 148 -69 55 -94 106 -95 194 0 58 4 78 27 116 62 105 220 158
384 130 141 -25 246 -106 281 -217 l17 -54 218 0 218 0 -6 33 c-34 204 -82
306 -198 422 -66 66 -99 90 -176 128 -186 91 -395 124 -615 96z"/>
<path d="M10067 6515 c-90 -34 -136 -97 -137 -189 0 -101 66 -159 235 -206
133 -37 155 -55 155 -125 0 -100 -176 -141 -257 -59 -18 17 -33 41 -33 53 0
19 -6 21 -61 21 l-61 0 6 -31 c16 -84 76 -148 160 -170 23 -6 80 -9 127 -7 70
3 94 9 132 31 118 69 140 238 42 313 -19 14 -89 43 -157 65 -144 47 -168 65
-168 125 0 35 5 47 30 67 36 31 95 42 148 27 43 -11 82 -50 82 -81 0 -16 8
-19 60 -19 l59 0 -13 44 c-32 106 -108 156 -236 155 -41 0 -92 -7 -113 -14z"/>
<path d="M8743 6500 c-17 -4 -46 -16 -63 -27 -48 -30 -500 -504 -516 -540 -12
-27 -14 -174 -14 -870 0 -794 1 -840 19 -878 10 -22 31 -52 47 -67 63 -59 50
-58 686 -58 376 0 596 4 621 11 47 13 99 58 123 107 18 35 19 89 19 1107 l0
1070 -22 42 c-27 50 -73 87 -128 102 -46 12 -720 14 -772 1z m619 -467 c22
-20 24 -66 2 -87 -13 -14 -65 -16 -416 -16 -442 0 -438 -1 -438 61 0 58 5 59
439 59 353 0 396 -2 413 -17z m-8 -344 c15 -12 26 -30 26 -44 0 -14 -11 -32
-26 -44 -26 -20 -37 -21 -405 -21 -212 0 -389 4 -402 9 -45 17 -48 93 -4 111
12 5 194 9 403 9 371 1 382 0 408 -20z m-204 -349 c24 -24 25 -48 4 -78 -15
-22 -17 -22 -311 -22 -262 0 -299 2 -315 17 -24 21 -23 58 2 83 19 19 33 20
310 20 277 0 291 -1 310 -20z m333 -251 c33 -36 35 -74 5 -115 -13 -17 -171
-177 -352 -355 -307 -303 -331 -324 -368 -327 -38 -3 -43 1 -169 125 -157 154
-188 192 -196 237 -8 48 38 96 92 96 33 0 48 -11 154 -115 l117 -114 298 292
c164 160 310 297 325 304 34 16 60 8 94 -28z"/>
<path d="M3852 5343 l3 -1158 218 -3 217 -2 1 852 c0 823 1 851 18 803 9 -27
138 -411 285 -853 l268 -803 136 3 135 3 274 830 c151 457 277 837 281 845 4
8 8 -366 10 -832 l2 -848 215 0 215 0 0 1160 0 1160 -309 0 -309 0 -11 -32
c-5 -18 -59 -186 -120 -373 -94 -291 -341 -1062 -372 -1163 -12 -36 19 -124
-384 1071 l-167 497 -304 0 -304 0 2 -1157z"/>
<path d="M6350 6295 l0 -205 323 -2 322 -3 2 -950 3 -950 230 -3 230 -2 0 955
0 955 320 0 320 0 0 205 0 205 -875 0 -875 0 0 -205z"/>
<path d="M12359 6473 c0 -5 0 -36 1 -70 l1 -63 -35 0 c-35 0 -36 -1 -36 -40 0
-39 1 -40 35 -40 l35 0 0 -188 c0 -154 3 -192 16 -210 25 -36 68 -52 140 -52
64 0 66 1 60 23 -3 12 -6 30 -6 40 0 13 -8 17 -34 17 -62 0 -66 11 -66 201 l0
169 50 0 50 0 0 40 0 40 -50 0 -50 0 0 70 0 70 -55 0 c-30 0 -55 -3 -56 -7z"/>
<path d="M11542 6339 c-70 -9 -128 -48 -152 -102 l-19 -42 54 -3 c50 -3 57 -1
83 29 24 27 36 32 75 33 62 1 101 -27 105 -77 4 -41 8 -39 -117 -57 -147 -21
-201 -66 -201 -167 0 -62 31 -105 95 -134 74 -34 145 -22 203 34 l32 31 0 -37
0 -37 55 0 55 0 -2 198 c-3 170 -6 202 -22 235 -36 74 -130 110 -244 96z m148
-323 c0 -96 -113 -161 -184 -105 -33 26 -36 77 -6 104 24 21 99 43 153 44 l37
1 0 -44z"/>
<path d="M10540 6075 l0 -265 55 0 55 0 0 180 c0 231 12 260 109 260 80 0 91
-32 91 -261 l0 -179 50 0 50 0 0 175 c0 189 9 230 56 256 49 26 118 7 134 -37
6 -14 10 -108 10 -210 l0 -184 55 0 55 0 0 203 c0 193 -1 206 -23 247 -29 55
-75 80 -145 80 -65 0 -110 -18 -144 -58 l-25 -30 -14 24 c-24 46 -72 67 -144
62 -55 -3 -69 -8 -95 -33 l-30 -29 0 32 c0 32 0 32 -50 32 l-50 0 0 -265z"/>
<path d="M11924 6075 l1 -265 58 0 57 0 0 166 c0 131 3 173 16 199 22 48 57
68 110 63 l44 -3 0 52 0 53 -37 0 c-39 0 -116 -39 -132 -68 -8 -13 -10 -8 -11
26 l0 42 -54 0 -54 0 2 -265z"/>
<path d="M9942 5243 l3 -348 228 -3 227 -2 0 50 0 50 -170 0 -170 0 0 100 0
100 160 0 160 0 0 45 0 45 -160 0 -160 0 0 110 0 110 165 0 165 0 0 45 0 45
-225 0 -225 0 2 -347z"/>
<path d="M10466 5408 c4 -7 42 -62 84 -123 42 -60 80 -115 83 -122 4 -7 -29
-65 -78 -136 -47 -69 -85 -128 -85 -131 0 -3 26 -6 58 -6 l57 1 59 95 59 95
63 -96 64 -95 60 0 c33 0 60 3 60 6 0 5 -141 210 -171 250 -5 6 23 57 72 130
45 65 83 124 85 129 3 6 -18 9 -53 9 l-58 -2 -52 -77 c-28 -43 -56 -82 -61
-87 -5 -5 -32 26 -68 81 l-59 91 -63 0 c-48 0 -61 -3 -56 -12z"/>
<path d="M11030 5060 l0 -360 55 0 55 0 0 131 0 132 20 -25 c29 -38 71 -51
148 -46 88 5 133 35 170 117 22 47 27 70 27 146 0 103 -14 152 -58 202 -40 46
-82 63 -153 63 -63 0 -115 -21 -144 -58 l-20 -25 0 42 0 41 -50 0 -50 0 0
-360z m308 254 c13 -9 30 -32 39 -51 18 -43 20 -148 3 -197 -39 -119 -198
-114 -231 7 -16 60 -6 172 18 205 43 59 114 74 171 36z"/>
<path d="M11725 5401 c-118 -54 -173 -199 -132 -342 41 -138 185 -211 325
-165 48 16 132 89 132 115 0 9 -60 31 -85 31 -5 0 -24 -14 -41 -31 -25 -25
-44 -33 -81 -36 -62 -5 -107 21 -133 80 -37 80 -44 77 166 77 l187 0 -6 65
c-10 102 -58 176 -139 209 -51 22 -143 20 -193 -3z m185 -98 c20 -18 33 -41
37 -65 l6 -38 -132 0 c-72 0 -131 2 -131 5 0 26 39 91 64 106 48 29 118 26
156 -8z"/>
<path d="M12160 5155 l0 -265 55 0 55 0 0 170 c0 191 9 228 59 254 46 24 105
21 138 -8 l28 -24 3 -196 3 -196 55 0 54 0 0 198 c0 185 -1 201 -22 242 -30
58 -89 90 -168 90 -61 0 -132 -27 -149 -57 -9 -15 -10 -12 -11 20 l0 37 -50 0
-50 0 0 -265z"/>
<path d="M12838 5410 c-74 -22 -118 -80 -118 -153 0 -70 33 -98 161 -137 113
-35 139 -51 139 -86 0 -61 -126 -89 -175 -39 -14 13 -25 31 -25 40 0 12 -13
15 -60 15 -65 0 -67 -3 -46 -53 44 -107 202 -147 327 -84 59 30 89 76 89 139
0 74 -37 107 -166 147 -122 37 -139 49 -130 84 8 35 58 61 103 54 41 -7 62
-22 74 -54 7 -20 16 -23 59 -23 46 0 50 2 50 24 0 37 -41 89 -90 114 -46 23
-136 29 -192 12z"/>
<path d="M13350 5407 c-19 -6 -55 -32 -81 -57 -54 -54 -74 -114 -72 -213 2
-82 37 -164 87 -202 115 -88 289 -66 364 45 26 39 22 44 -44 55 -33 5 -43 3
-47 -9 -10 -25 -69 -56 -107 -56 -72 0 -125 48 -144 133 l-6 27 185 0 185 0 0
58 c0 61 -31 143 -66 174 -58 52 -170 71 -254 45z m172 -104 c20 -17 48 -72
48 -93 0 -6 -47 -10 -130 -10 -126 0 -130 1 -130 21 0 17 35 88 43 89 1 0 19
6 41 14 45 16 97 7 128 -21z"/>
<path d="M9930 4628 l0 -48 100 0 100 0 0 -300 0 -300 58 0 57 0 -3 300 -3
300 111 0 110 0 0 45 0 44 -265 3 -265 3 0 -47z"/>
<path d="M11963 4672 l-53 -3 0 -345 0 -344 55 0 55 0 0 83 c1 75 3 85 29 116
l29 35 82 -112 82 -112 68 0 68 0 -109 145 c-60 80 -109 149 -109 154 0 5 43
54 96 110 l96 101 -65 0 -65 0 -98 -111 -99 -110 -5 198 -5 198 -52 -3z"/>
<path d="M11522 4499 c-66 -16 -135 -88 -157 -163 -30 -103 -9 -224 49 -293
88 -105 314 -93 372 19 9 17 20 44 24 59 8 27 8 27 -47 31 -53 3 -55 2 -68
-28 -17 -42 -51 -64 -98 -64 -90 0 -127 51 -127 175 0 130 36 180 127 180 48
0 58 -4 79 -28 13 -15 24 -35 24 -43 0 -10 14 -14 56 -14 l57 0 -6 35 c-3 19
-15 48 -26 64 -43 59 -165 92 -259 70z"/>
<path d="M10490 4238 l0 -263 55 0 55 0 0 140 c1 176 9 219 48 258 27 26 39
31 82 31 l50 0 0 48 0 48 -34 0 c-48 0 -85 -16 -124 -53 l-33 -32 3 40 3 40
-52 3 -53 3 0 -263z"/>
<path d="M10934 4480 c-51 -25 -68 -44 -89 -93 l-15 -37 56 0 c49 0 58 3 79
29 59 69 185 34 185 -51 0 -16 -2 -28 -4 -28 -31 0 -172 -25 -208 -36 -116
-37 -153 -168 -70 -247 36 -34 72 -47 133 -47 57 0 81 10 127 53 l32 31 0 -40
0 -39 50 0 50 0 0 194 c0 174 -2 199 -20 235 -32 67 -78 90 -179 94 -71 2 -93
-1 -127 -18z m200 -358 c-23 -44 -85 -76 -129 -68 -52 10 -82 57 -65 100 13
34 43 49 130 61 l75 11 3 -36 c2 -20 -4 -49 -14 -68z"/>
<path d="M12520 4484 c-83 -36 -131 -112 -138 -221 -8 -131 34 -219 129 -267
109 -54 253 -25 314 65 16 21 26 41 24 42 -2 2 -24 8 -49 15 -42 11 -46 10
-65 -12 -11 -13 -30 -29 -42 -35 -31 -16 -99 -14 -133 4 -31 16 -70 80 -70
115 0 19 5 20 186 20 l186 0 -7 63 c-12 107 -49 168 -127 208 -46 24 -157 25
-208 3z m161 -79 c32 -17 69 -69 69 -97 0 -16 -13 -18 -130 -18 -143 0 -143 0
-112 59 34 62 111 87 173 56z"/>
<path d="M12950 4240 l0 -260 55 0 55 0 1 158 c0 94 5 171 12 192 16 47 70 83
120 78 l37 -4 0 48 0 48 -35 0 c-48 0 -97 -22 -123 -55 l-22 -28 0 42 0 41
-50 0 -50 0 0 -260z"/>
</g>
</svg>
